<svg width="244" height="28" viewBox="0 0 244 28" fill="none" xmlns="http://www.w3.org/2000/svg">
<g clip-path="url(#clip0_4007_2)">
<path d="M243.587 27.2701C240.643 27.4843 239.886 27.9775 239.767 23.6767C239.726 22.2253 239.797 20.7682 239.715 19.3196C239.571 16.8592 238.617 15.8446 236.21 15.7065C234.054 15.5825 231.889 15.5994 229.731 15.5825C227.27 15.5628 227.188 15.4669 227.704 12.7416C229.811 12.7416 231.961 12.8177 234.103 12.7134C235.419 12.6514 236.774 12.4795 238.015 12.0652C239.875 11.4424 240.69 9.92049 240.643 7.76447C240.599 5.77192 239.64 4.3374 237.777 3.76246C236.779 3.45526 235.709 3.2608 234.667 3.24389C231.035 3.17907 227.4 3.21289 223.768 3.21852C223.503 3.21852 223.235 3.30307 222.84 3.37071V27.2278H219.672V0.481935C220.015 0.442479 220.363 0.369202 220.714 0.369202C225.499 0.363566 230.283 0.295926 235.062 0.414296C236.591 0.450934 238.175 0.803224 239.618 1.33589C242.443 2.37585 244.04 4.85879 243.999 7.68274C243.957 10.3911 242.338 12.5274 239.502 13.6322C239.187 13.7562 238.88 13.9084 238.225 14.2015C241.174 14.7454 242.777 16.2335 242.976 18.9983C243.076 20.399 243.054 21.8082 243.153 23.2089C243.25 24.5363 243.432 25.8581 243.587 27.2672V27.2701Z" fill="#121212"/>
<path d="M106.725 26.9009H103.731V15.2753H84.5622C84.5622 17.2988 84.5622 19.3027 84.5622 21.3065C84.5622 22.6649 84.5014 24.029 84.5788 25.3818C84.6452 26.557 84.3383 27.177 83.0613 26.9713C82.6163 26.9009 82.1519 26.96 81.5742 26.96V0.295923C81.7014 0.231101 81.7788 0.157825 81.8589 0.157825C85.1372 0.0676389 84.507 -0.124007 84.5539 2.71122C84.5954 5.24207 84.5595 7.77292 84.5678 10.301C84.5678 10.8026 84.623 11.3043 84.6562 11.8398H103.651V0.208555H106.725V26.898V26.9009Z" fill="#121212"/>
<path d="M173.811 15.1062V12.1582C175.652 12.1582 177.432 12.1695 179.209 12.1554C180.923 12.1413 182.476 11.6622 183.723 10.3996C185.373 8.72552 185.365 6.4455 183.684 4.7996C182.463 3.60181 180.956 3.10015 179.289 3.0917C175.84 3.07761 172.39 3.13115 168.943 3.0607C167.821 3.03815 167.55 3.42708 167.556 4.50931C167.597 11.3973 167.578 18.2824 167.578 25.1704C167.578 25.7172 167.578 26.2639 167.578 26.6613C167.37 26.8389 167.34 26.8924 167.301 26.898C165.374 27.131 164.409 26.2649 164.407 24.2995C164.388 16.8507 164.366 9.40473 164.344 1.95591C164.344 1.40352 164.344 0.851133 164.344 0.222648C164.819 0.180373 165.173 0.124007 165.527 0.124007C170.171 0.11837 174.82 0.0394572 179.461 0.1691C180.884 0.208556 182.393 0.603121 183.684 1.22033C186.396 2.51394 187.944 4.76014 187.842 7.91384C187.739 11.0281 185.92 12.9981 183.322 14.2663C182.391 14.7229 181.31 15.0132 180.279 15.0724C178.175 15.1936 176.064 15.109 173.808 15.109L173.811 15.1062Z" fill="#121212"/>
<path d="M140.16 0.186008H143.203V23.6739H158.387V26.8529H140.16V0.186008Z" fill="#121212"/>
<path d="M134.626 0.2001V3.25516H113.381V0.2001H134.626Z" fill="#121212"/>
<path d="M192.023 3.24388V0.214191H213.329V3.24388H192.023Z" fill="#121212"/>
<path d="M134.621 12.0089V15.0667H113.379V12.0089H134.621Z" fill="#121212"/>
<path d="M192.043 15.0611V12.0089H213.294V15.0611H192.043Z" fill="#121212"/>
<path d="M134.624 23.8092V26.8783H113.373V23.8092H134.624Z" fill="#121212"/>
<path d="M213.34 23.8486V26.867H192.07V23.8486H213.34Z" fill="#121212"/>
<path d="M41.7186 0.0451067C40.6075 3.73147 39.4548 7.20082 38.1944 10.6476C36.6658 14.8244 35.4081 19.1054 34.0371 23.3441C33.6419 24.5701 33.0199 25.7087 32.7878 26.9995C32.691 27.5406 32.3151 27.8365 31.718 27.907C29.4487 28.1719 29.2027 28.0141 28.3845 25.8553C26.1069 19.8494 23.8044 13.8549 21.5267 7.84903C21.3332 7.34173 20.8993 6.9669 20.7251 6.37223C19.5144 9.5372 18.3093 12.7022 17.0958 15.8671C15.6917 19.5338 14.2709 23.1948 12.8833 26.8699C12.3498 28.2847 11.1723 27.7745 10.1911 27.9042C9.34525 28.0141 9.01079 27.6393 8.74267 26.836C5.9592 18.46 3.13427 10.1009 0.328684 1.7361C-0.237961 0.0479251 -0.221376 0.138111 1.59189 0.0141052C2.98777 -0.0817177 3.65392 0.312847 4.10447 1.77274C6.14716 8.42679 8.33911 15.0329 10.4813 21.656C10.567 21.9209 10.6693 22.1774 10.8351 22.6368C11.9877 20.43 12.665 18.212 13.4997 16.0644C15.4622 10.9999 17.4275 5.93539 19.332 0.848328C19.6803 -0.0788994 20.3133 0.0704715 20.9877 0.0338334C21.6456 -0.00280475 22.0713 0.12402 22.3421 0.862419C24.2522 6.07913 26.2009 11.2817 28.1661 16.4787C28.9125 18.4515 29.7279 20.3962 30.5488 22.4507C31.1542 21.997 31.2039 21.4108 31.3615 20.9148C33.4733 14.3453 35.585 7.77857 37.6443 1.19216C37.9152 0.326939 38.2856 -0.0478979 39.1784 0.0281968C39.9524 0.0930181 40.7346 0.0422884 41.7214 0.0422884L41.7186 0.0451067Z" fill="#FFDE31"/>
<path d="M64.6824 13.821C65.2048 14.0916 65.4646 14.2804 65.7549 14.365C68.7042 15.2246 70.6087 17.3355 70.6805 19.8551C70.78 23.3639 69.257 25.6693 66.0866 26.8163C64.4778 27.3997 62.8332 27.6984 61.1194 27.69C56.3347 27.6674 51.5501 27.659 46.7654 27.7069C45.8117 27.7153 45.5187 27.4476 45.5215 26.4556C45.5574 18.0682 45.5574 9.68093 45.5215 1.29361C45.5187 0.332563 45.7399 0.0112744 46.7322 0.0225477C51.4699 0.0760958 56.2104 -0.0140904 60.9481 0.0817324C62.7613 0.118371 64.5939 0.369201 66.2579 1.28515C68.8728 2.72813 70.1167 4.90388 69.8734 7.96175C69.6689 10.5377 68.1652 12.1019 66.0589 13.2292C65.7024 13.4208 65.3126 13.5533 64.6824 13.8239V13.821ZM56.4398 24.5645C58.593 24.4433 61.1747 24.8153 63.7232 24.2573C66.2192 23.7105 67.2696 22.1999 67.1065 19.3562C66.9932 17.4059 65.4011 16.1208 63.1981 15.7629C60.6357 15.3457 58.0789 15.5797 55.5221 15.4923C53.3606 15.419 53.6121 15.9404 53.5402 13.4828C53.5153 12.6289 53.7614 12.3301 54.621 12.3527C56.6416 12.4062 58.6649 12.3245 60.6855 12.3837C61.7137 12.4147 62.6978 12.2428 63.6044 11.8426C65.5641 10.9745 66.4542 10.2474 66.2856 6.94998C66.2054 5.40272 65.1965 4.11475 63.4247 3.60745C62.601 3.37071 61.7303 3.1847 60.879 3.17343C57.2939 3.1227 53.7088 3.16497 50.1238 3.13115C49.3719 3.1227 49.0762 3.3228 49.0789 4.14575C49.1066 10.6053 49.1121 17.0649 49.0762 23.5245C49.0706 24.4602 49.4631 24.5927 50.2316 24.5786C52.1609 24.5419 54.093 24.5673 56.4343 24.5673L56.4398 24.5645Z" fill="#FFDE31"/>
</g>
<defs>
<clipPath id="clip0_4007_2">
<rect width="244" height="28" fill="white"/>
</clipPath>
</defs>
</svg>
